<svg width="96" height="96" xmlns="http://www.w3.org/2000/svg" xmlns:xlink="http://www.w3.org/1999/xlink" xml:space="preserve" overflow="hidden"><g><path d="M82.65 62.63C80.17 61.33 70.46 58.06 62.3 54.89 60.3 54.1 58.51 52.64 58.16 50.5 57.75 48.02 59.47 46.27 61.3 44.67 66.3 40.25 71.24 39.07 73.24 37.07 77.2125 33.2332 77.3225 26.9025 73.4858 22.93 69.649 18.9575 63.3183 18.8474 59.3458 22.6842 59.2624 22.7647 59.1805 22.8467 59.1 22.93 58.1 23.93 56.9 25.93 55.26 28.02 49.59 35.13 48.17 35.89 44.15 35.89L44.15 35.89C41.7964 35.83 39.7347 34.2968 39 32.06 36.71 25.64 34 17.76 32.88 15.67 30.6874 11.7322 25.7178 10.3174 21.78 12.51 17.8422 14.7026 16.4274 19.6722 18.62 23.61 20.776 26.7864 23.2341 29.7469 25.96 32.45 28.0047 34.5079 28.9123 37.4364 28.39 40.29 27.5252 44.5751 23.5738 47.5224 19.22 47.13 18.22 47.05 17.46 47 17.02 47 13.6179 47 10.86 49.7579 10.86 53.16 10.86 56.5621 13.6179 59.32 17.02 59.32 17.96 59.32 20.4 59.11 23.44 58.73 25.9367 58.3929 28.3642 59.7118 29.44 61.99L29.44 61.99C30.44 64.12 29.44 66.22 28.44 68.36 27.7815 69.7507 27.0159 71.088 26.15 72.36 24.951 74.6747 25.8555 77.5231 28.1702 78.722 30.3388 79.8453 33.0062 79.1288 34.32 77.07 35.08 75.75 35.79 71.68 38.59 66.07 38.9423 65.2001 39.6002 64.4889 40.44 64.07 42.154 63.3446 44.1316 64.1461 44.8569 65.8602 44.9134 65.9936 44.9612 66.1305 45 66.27 45.32 67.35 45.62 68.27 45.82 68.74 46.8906 70.866 49.482 71.7216 51.608 70.6509 53.4484 69.7242 54.3753 67.6243 53.82 65.64 53.621 65.1922 53.3869 64.7609 53.12 64.35 52.4471 63.3355 52.6645 61.9744 53.62 61.22 54.5652 60.5916 55.8232 60.7216 56.62 61.53 63.78 67.69 72.35 75.65 75 77.06 78.9264 79.2721 83.9026 77.8825 86.1147 73.9561 88.3269 70.0298 86.9372 65.0536 83.0109 62.8414 82.8792 62.7672 82.7456 62.6967 82.61 62.63Z"/><path d="M51.84 20C51.84 22.2091 50.0491 24 47.84 24 45.6309 24 43.84 22.2091 43.84 20 43.84 17.7909 45.6309 16 47.84 16 50.0491 16 51.84 17.7909 51.84 20Z"/><path d="M19.84 35.21C19.84 38.0874 17.5074 40.42 14.63 40.42 11.7526 40.42 9.42 38.0874 9.42 35.21 9.42 32.3326 11.7526 30 14.63 30 17.5074 30 19.84 32.3326 19.84 35.21Z"/><path d="M18.84 68C18.84 69.1046 17.9446 70 16.84 70 15.7354 70 14.84 69.1046 14.84 68 14.84 66.8954 15.7354 66 16.84 66 17.9446 66 18.84 66.8954 18.84 68Z"/><path d="M44.84 80.5C44.84 81.3284 44.1684 82 43.34 82 42.5116 82 41.84 81.3284 41.84 80.5 41.84 79.6716 42.5116 79 43.34 79 44.1684 79 44.84 79.6715 44.84 80.5Z"/><path d="M63.84 82.5C63.84 84.433 62.273 86 60.34 86 58.407 86 56.84 84.433 56.84 82.5 56.84 80.567 58.407 79 60.34 79 62.273 79 63.84 80.567 63.84 82.5Z"/><path d="M77.84 51C77.84 52.1046 76.9446 53 75.84 53 74.7354 53 73.84 52.1046 73.84 51 73.84 49.8954 74.7354 49 75.84 49 76.9445 49 77.84 49.8954 77.84 51Z"/></g></svg>