<svg width="96" height="96" xmlns="http://www.w3.org/2000/svg" xmlns:xlink="http://www.w3.org/1999/xlink" xml:space="preserve" overflow="hidden"><g><path d="M38 29 58 29 58 39 38 39Z"/><path d="M62 29 82 29 82 39 62 39Z"/><path d="M14 29 34 29 34 39 14 39Z"/><path d="M14 43 22 43 22 53 14 53Z"/><path d="M74 43 82 43 82 53 74 53Z"/><path d="M26 43 46 43 46 53 26 53Z"/><path d="M50 43 70 43 70 53 50 53Z"/><path d="M38 57 58 57 58 67 38 67Z"/><path d="M14 57 34 57 34 67 14 67Z"/><path d="M62 57 82 57 82 67 62 67Z"/><path d="M10 15 86 15 86 25 10 25Z"/><path d="M14 71 22 71 22 81 14 81Z"/><path d="M74 71 82 71 82 81 74 81Z"/><path d="M26 71 46 71 46 81 26 81Z"/><path d="M50 71 70 71 70 81 50 81Z"/></g></svg>