<svg width="96" height="96" xmlns="http://www.w3.org/2000/svg" xmlns:xlink="http://www.w3.org/1999/xlink" xml:space="preserve" overflow="hidden"><g><path d="M27 32C27 33.1046 26.1046 34 25 34 23.8954 34 23 33.1046 23 32 23 30.8954 23.8954 30 25 30 26.1046 30 27 30.8954 27 32Z"/><path d="M27 40C27 41.1046 26.1046 42 25 42 23.8954 42 23 41.1046 23 40 23 38.8954 23.8954 38 25 38 26.1046 38 27 38.8954 27 40Z"/><path d="M23 36C23 37.1046 22.1046 38 21 38 19.8954 38 19 37.1046 19 36 19 34.8954 19.8954 34 21 34 22.1046 34 23 34.8954 23 36Z"/><path d="M31 36C31 37.1046 30.1046 38 29 38 27.8954 38 27 37.1046 27 36 27 34.8954 27.8954 34 29 34 30.1046 34 31 34.8954 31 36Z"/><path d="M55 28C55 29.1046 54.1046 30 53 30 51.8954 30 51 29.1046 51 28 51 26.8954 51.8954 26 53 26 54.1046 26 55 26.8954 55 28Z"/><path d="M55 36C55 37.1046 54.1046 38 53 38 51.8954 38 51 37.1046 51 36 51 34.8954 51.8954 34 53 34 54.1046 34 55 34.8954 55 36Z"/><path d="M51 32C51 33.1046 50.1046 34 49 34 47.8954 34 47 33.1046 47 32 47 30.8954 47.8954 30 49 30 50.1046 30 51 30.8954 51 32Z"/><path d="M59 32C59 33.1046 58.1046 34 57 34 55.8954 34 55 33.1046 55 32 55 30.8954 55.8954 30 57 30 58.1046 30 59 30.8954 59 32Z"/><path d="M82 45 76 51 68 51 68 73 76 73 82 79 88 79 88 45Z"/><path d="M53 41C48 41 44 37 44 32 44 27 48 23 53 23 58 23 62 27 62 32 62 37 58 41 53 41ZM56 73C54.9 73 54 72.1 54 71 54 69.9 54.9 69 56 69 57.1 69 58 69.9 58 71 58 72.1 57.1 73 56 73ZM37 45C38.3 43.2 39.3 41.2 39.7 38.9 41 41.4 43.1 43.5 45.5 45L37 45ZM25 45C20 45 16 41 16 36 16 31 20 27 25 27 30 27 34 31 34 36 34 41 30 45 25 45ZM60.4 45C64.9 42.4 68 37.6 68 32 68 23.7 61.3 17 53 17 45.7 17 39.7 22.2 38.3 29.1 35.8 24.3 30.8 21 25 21 16.7 21 10 27.7 10 36 10 40.9 12.4 45.2 16 48L16 51 14 51 12 49 8 49 8 59 12 59 14 57 16 57 16 75C16 77.2 17.8 79 20 79L60 79C62.2 79 64 77.2 64 75L64 49C64 46.9 62.4 45.2 60.4 45Z"/></g></svg>